<svg id="Capa_1" enable-background="new 0 0 512 512" height="512" viewBox="0 0 512 512" width="512" xmlns="http://www.w3.org/2000/svg"><g><g><g><g><path d="m430.39 41.815h-.972v-12.106c0-16.382-13.327-29.709-29.709-29.709h-216.854c-16.382 0-29.709 13.327-29.709 29.709v12.106h-.972c-16.382 0-29.709 13.328-29.709 29.709v40.788c0 13.194 8.646 24.407 20.569 28.271v186.64c-9.644-8.053-22.049-12.905-35.566-12.905-30.64 0-55.567 24.927-55.567 55.567v86.548c0 30.64 24.928 55.567 55.567 55.567 14.57 0 27.848-5.637 37.768-14.844 3.937 8.742 12.732 14.844 22.925 14.844h246.241c13.855 0 25.126-11.271 25.126-25.126v-346.291c11.924-3.864 20.569-15.077 20.569-28.271v-40.788c.002-16.381-13.325-29.709-29.707-29.709zm-257.244-12.106c0-5.354 4.355-9.709 9.709-9.709h216.854c5.353 0 9.709 4.355 9.709 9.709v12.106h-236.272zm-10.111 240.335h92.645v28.786h-92.645zm0 95.467h102.645c5.522 0 10-4.477 10-10s-4.478-10-10-10h-102.645v-26.681h102.645c5.522 0 10-4.477 10-10v-48.786c0-5.523-4.478-10-10-10h-102.645v-26.913h166.888v182.064h-166.888zm-91.134 4.374c0-19.612 15.955-35.567 35.567-35.567 19.611 0 35.566 15.955 35.566 35.567v33.274h-71.133zm35.568 122.115c-19.612 0-35.567-15.956-35.567-35.567v-33.274h71.134v33.274c-.001 19.611-15.956 35.567-35.567 35.567zm306.934 0h-246.241c-2.827 0-5.127-2.3-5.127-5.126v-61.678h176.888c5.522 0 10-4.477 10-10v-202.065c0-5.523-4.478-10-10-10h-176.888v-61.11h256.494v61.11h-33.182c-5.522 0-10 4.477-10 10v55.826c0 5.523 4.478 10 10 10s10-4.477 10-10v-45.826h23.182v182.064h-23.182v-45.825c0-5.523-4.478-10-10-10s-10 4.477-10 10v55.826c0 5.523 4.478 10 10 10h33.182v61.678c0 2.826-2.3 5.126-5.126 5.126zm25.696-379.688c0 5.354-4.355 9.709-9.709 9.709h-278.215c-5.354 0-9.709-4.355-9.709-9.709v-40.788c0-5.354 4.355-9.709 9.709-9.709h15.468v20.22c0 5.523 4.478 10 10 10s10-4.477 10-10v-20.22h36.819v20.22c0 5.523 4.478 10 10 10 5.523 0 10-4.477 10-10v-20.22h36.82v20.22c0 5.523 4.478 10 10 10s10-4.477 10-10v-20.22h36.82v20.22c0 5.523 4.478 10 10 10s10-4.477 10-10v-20.22h36.82v20.22c0 5.523 4.477 10 10 10 5.522 0 10-4.477 10-10v-20.22h15.467c5.354 0 9.709 4.355 9.709 9.709v40.788z"/><path d="m377.109 318.17c1.577 3.848 5.574 6.382 9.729 6.165 4.12-.215 7.758-3.003 9.021-6.93 1.275-3.965-.104-8.458-3.424-10.992-3.37-2.572-8.104-2.733-11.636-.384-3.919 2.608-5.501 7.793-3.69 12.141z"/></g></g></g></g></svg>